<?xml version="1.0" standalone="no"?>
<!DOCTYPE svg PUBLIC "-//W3C//DTD SVG 20010904//EN"
 "http://www.w3.org/TR/2001/REC-SVG-20010904/DTD/svg10.dtd">
<svg version="1.0" xmlns="http://www.w3.org/2000/svg"
 width="643.000000pt" height="305.000000pt" viewBox="0 0 643.000000 305.000000"
 preserveAspectRatio="xMidYMid meet">

<g transform="translate(0.000000,305.000000) scale(0.100000,-0.100000)"
fill="#000000" stroke="none">
<path d="M4824 2846 c-9 -24 14 -54 68 -91 38 -25 55 -32 64 -24 7 6 18 8 24
4 5 -3 10 -2 10 2 0 14 -83 90 -117 107 -39 20 -42 20 -49 2z"/>
<path d="M3332 2743 c-5 -10 -13 -56 -17 -103 -9 -115 -78 -450 -108 -530 -27
-70 -72 -154 -129 -238 -42 -62 -118 -125 -141 -116 -20 7 -31 62 -24 112 31
192 31 180 1 226 -48 71 -65 86 -100 86 -67 0 -148 -69 -230 -197 -19 -28 -38
-54 -43 -58 -6 -3 -22 8 -37 25 -15 16 -35 30 -44 30 -21 0 -64 -48 -142 -156
-32 -44 -75 -98 -95 -119 -21 -22 -46 -52 -56 -67 -18 -29 -42 -37 -49 -15 -3
6 -1 48 3 92 7 70 6 85 -11 118 -11 21 -20 49 -20 63 0 68 -71 28 -482 -273
-70 -52 -98 -64 -98 -42 0 6 7 38 16 71 36 142 -19 268 -118 268 -24 0 -41 5
-44 14 -3 7 15 42 41 77 123 171 163 241 189 328 33 111 10 223 -53 255 -108
57 -304 -29 -499 -218 -155 -150 -222 -266 -222 -383 0 -95 30 -130 127 -147
24 -4 47 2 89 24 59 31 53 41 -9 15 -52 -21 -99 -19 -138 8 -32 22 -34 26 -33
83 2 157 118 330 320 480 131 98 264 143 323 112 65 -35 88 -117 61 -217 -39
-148 -225 -418 -321 -466 -25 -13 -61 -42 -79 -65 -20 -26 -40 -40 -55 -40
-14 0 -38 -17 -64 -45 -43 -47 -52 -75 -23 -75 16 0 205 128 246 167 41 38 72
53 112 53 45 0 73 -20 100 -72 25 -48 15 -165 -21 -248 -32 -74 -56 -99 -181
-190 -49 -35 -120 -90 -159 -121 -38 -32 -119 -97 -180 -145 -139 -111 -423
-373 -538 -495 -86 -93 -151 -175 -183 -234 -9 -16 -26 -41 -39 -55 -34 -37
-49 -88 -38 -130 8 -29 14 -36 39 -38 19 -2 43 6 67 22 21 14 51 33 68 42 65
33 252 187 467 383 92 84 324 332 382 407 85 112 152 208 199 289 29 50 63
101 76 115 12 14 26 35 29 47 9 29 84 94 160 140 34 20 90 60 126 88 36 28 78
60 94 71 146 97 162 105 178 88 11 -10 -39 -121 -79 -175 -59 -80 -151 -238
-159 -272 -19 -88 65 -17 122 103 77 163 140 260 167 260 10 0 3 -130 -9 -176
-6 -22 18 -54 41 -54 25 0 104 76 146 140 73 113 171 239 192 246 36 11 42
-11 39 -135 -3 -124 4 -160 41 -200 31 -33 62 -42 107 -32 52 12 141 89 179
155 37 66 54 74 93 41 32 -27 74 -32 101 -12 30 22 119 151 149 215 18 36 36
62 45 62 14 0 15 -22 8 -175 -5 -132 -4 -179 5 -190 16 -20 43 -5 75 43 14 20
43 59 64 86 22 27 42 62 45 78 12 59 152 225 253 299 90 67 97 56 87 -118 -6
-110 -5 -123 9 -123 10 0 26 -20 39 -47 28 -59 58 -72 120 -54 47 14 97 61
186 174 64 82 88 88 78 20 -15 -98 -17 -129 -7 -108 12 28 69 197 92 275 33
109 11 197 -28 116 -9 -20 -20 -36 -24 -36 -5 0 -55 23 -112 50 -57 28 -116
50 -130 50 -35 0 -76 -46 -118 -131 -18 -38 -38 -69 -44 -69 -7 0 -19 18 -28
40 -21 55 -55 55 -133 -3 -76 -56 -226 -213 -288 -300 -37 -52 -53 -67 -70
-65 -20 3 -21 8 -19 118 2 137 17 243 49 365 44 169 76 346 69 384 -9 54 -15
71 -25 71 -5 0 -13 -8 -18 -17z m712 -498 c24 -19 61 -41 82 -49 33 -11 39
-18 37 -40 -3 -46 -154 -239 -196 -252 -12 -4 -42 -21 -65 -38 l-44 -31 -19
24 c-38 46 -18 204 42 334 14 30 84 87 107 87 7 0 33 -16 56 -35z m-1219 -121
c31 -12 47 -63 47 -148 -1 -120 -27 -183 -112 -268 -57 -59 -71 -68 -102 -68
-60 0 -108 76 -108 171 0 74 115 242 198 291 51 30 53 31 77 22z m-1485 -777
c0 -19 -137 -229 -174 -268 -12 -13 -32 -39 -46 -59 -119 -175 -515 -557 -783
-754 -75 -55 -138 -79 -151 -58 -7 11 20 125 37 157 15 28 232 267 324 356
223 217 738 639 780 639 7 0 13 -6 13 -13z"/>
<path d="M5284 2608 c-37 -42 -54 -76 -75 -155 -18 -65 -21 -96 -16 -187 4
-89 8 -112 24 -128 16 -16 24 -17 48 -8 43 16 120 100 154 167 33 67 54 88 76
79 12 -4 15 -26 15 -115 0 -100 2 -112 23 -137 27 -31 44 -28 105 16 30 21 46
43 61 86 12 31 44 84 72 117 27 33 61 79 75 102 26 45 49 62 60 43 4 -6 4 -87
0 -182 -4 -110 -3 -166 3 -157 18 27 32 176 29 306 -3 125 -4 130 -25 133 -17
3 -32 -11 -71 -70 -88 -132 -182 -262 -222 -308 -58 -68 -65 -54 -65 138 0 86
-4 163 -8 170 -5 6 -17 12 -28 12 -22 0 -75 25 -81 37 -1 5 -18 20 -36 36 -42
34 -90 36 -118 5z m134 -84 c13 -8 28 -26 34 -40 16 -34 -22 -112 -92 -190
-30 -33 -63 -70 -72 -82 -42 -52 -64 -14 -56 96 8 99 36 178 76 214 37 32 63
32 110 2z"/>
<path d="M4738 2437 c-15 -12 -74 -94 -132 -182 -119 -181 -141 -209 -156
-200 -15 9 -12 46 6 66 21 23 12 59 -25 101 -30 34 -46 32 -62 -9 -6 -17 -3
-58 10 -134 20 -112 31 -139 58 -139 16 0 133 108 133 122 0 21 55 145 80 183
15 22 40 59 55 83 31 47 63 74 77 66 4 -3 18 -24 31 -47 20 -39 22 -55 22
-212 -1 -126 -5 -184 -17 -225 -9 -30 -22 -88 -29 -128 -14 -83 -26 -96 -99
-107 -73 -11 -487 -113 -590 -145 -52 -16 -153 -47 -225 -69 -130 -39 -150
-46 -340 -116 -96 -35 -242 -103 -250 -115 -2 -3 0 -11 4 -18 10 -16 130 5
138 25 10 26 226 118 368 158 94 26 245 74 263 84 9 5 62 21 117 35 55 14 125
31 155 39 30 8 82 20 115 27 33 7 111 25 173 40 138 32 149 28 132 -42 -19
-75 -7 -90 18 -22 34 93 44 99 242 129 353 53 811 94 867 77 48 -15 138 14
138 44 0 13 -8 20 -27 22 -26 3 -386 -29 -543 -48 -44 -6 -118 -14 -165 -20
-229 -26 -349 -41 -394 -50 -80 -17 -82 -10 -39 155 33 128 36 152 36 280 0
148 -13 217 -53 283 -24 38 -53 42 -92 9z"/>
</g>
</svg>
